<mxfile host="app.diagrams.net" modified="2022-10-25T14:26:03.247Z" agent="5.0 (Windows NT 10.0; Win64; x64) AppleWebKit/537.36 (KHTML, like Gecko) Chrome/106.0.0.0 Safari/537.36" etag="m89cXMfUYR05eAzKqu0X" version="20.5.1" type="github">
  <diagram name="Page-1" id="e7e014a7-5840-1c2e-5031-d8a46d1fe8dd">
    <mxGraphModel dx="593" dy="334" grid="1" gridSize="10" guides="1" tooltips="1" connect="1" arrows="1" fold="1" page="1" pageScale="1" pageWidth="1169" pageHeight="826" background="none" math="0" shadow="0">
      <root>
        <mxCell id="0" />
        <mxCell id="1" parent="0" />
        <mxCell id="2" value="USER" style="swimlane;whiteSpace=wrap" parent="1" vertex="1">
          <mxGeometry x="130" y="128" width="314.5" height="672" as="geometry" />
        </mxCell>
        <mxCell id="5" value="" style="ellipse;shape=startState;fillColor=#000000;strokeColor=#ff0000;" parent="2" vertex="1">
          <mxGeometry x="142.25" y="132" width="30" height="30" as="geometry" />
        </mxCell>
        <mxCell id="8" value="user action" style="rounded=1;whiteSpace=wrap;html=1;" parent="2" vertex="1">
          <mxGeometry x="102.25" y="220" width="110" height="50" as="geometry" />
        </mxCell>
        <mxCell id="9" value="" style="endArrow=open;strokeColor=#FF0000;endFill=1;rounded=0" parent="2" target="8" edge="1">
          <mxGeometry relative="1" as="geometry">
            <mxPoint x="157.25" y="160" as="sourcePoint" />
          </mxGeometry>
        </mxCell>
        <mxCell id="11" value="" style="endArrow=open;strokeColor=#FF0000;endFill=1;rounded=0;entryX=0.5;entryY=0;entryDx=0;entryDy=0;" parent="2" source="8" target="D4_bZYPueLDATteAEwUE-41" edge="1">
          <mxGeometry relative="1" as="geometry">
            <mxPoint x="157.25" y="325" as="targetPoint" />
          </mxGeometry>
        </mxCell>
        <mxCell id="D4_bZYPueLDATteAEwUE-41" value="Post Command :&lt;br&gt;&lt;ul&gt;&lt;li style=&quot;text-align: justify;&quot;&gt;Kalender Akademik&lt;/li&gt;&lt;li style=&quot;text-align: justify;&quot;&gt;Chat Message&lt;/li&gt;&lt;/ul&gt;" style="rounded=1;whiteSpace=wrap;html=1;" parent="2" vertex="1">
          <mxGeometry x="77.25" y="380.5" width="160" height="97" as="geometry" />
        </mxCell>
        <mxCell id="3" value="DISCORD BOT" style="swimlane;whiteSpace=wrap" parent="1" vertex="1">
          <mxGeometry x="444.5" y="128" width="415.5" height="672" as="geometry" />
        </mxCell>
        <mxCell id="16" value="check message for &lt;br&gt;new commands" style="rounded=1;whiteSpace=wrap;html=1;glass=0;shadow=0;sketch=0;" parent="3" vertex="1">
          <mxGeometry x="20" y="269" width="110" height="50" as="geometry" />
        </mxCell>
        <mxCell id="18" value="command queue" style="rounded=1;whiteSpace=wrap;html=1;" parent="3" vertex="1">
          <mxGeometry x="20" y="404" width="110" height="50" as="geometry" />
        </mxCell>
        <mxCell id="19" value="" style="endArrow=none;strokeColor=#FF0000;endFill=0;rounded=0;startArrow=open;startFill=0;" parent="3" source="16" target="18" edge="1">
          <mxGeometry relative="1" as="geometry" />
        </mxCell>
        <mxCell id="EUIIUWRr6nZzCH7hx4i6-45" value="" style="edgeStyle=orthogonalEdgeStyle;rounded=0;orthogonalLoop=1;jettySize=auto;html=1;strokeColor=#FF3333;endArrow=open;endFill=0;" parent="3" source="21" target="30" edge="1">
          <mxGeometry relative="1" as="geometry" />
        </mxCell>
        <mxCell id="EUIIUWRr6nZzCH7hx4i6-68" value="" style="edgeStyle=orthogonalEdgeStyle;rounded=0;orthogonalLoop=1;jettySize=auto;html=1;strokeColor=#FF3333;endArrow=open;endFill=0;" parent="3" source="21" target="EUIIUWRr6nZzCH7hx4i6-50" edge="1">
          <mxGeometry relative="1" as="geometry" />
        </mxCell>
        <mxCell id="21" value="Command is found" style="rhombus;fillColor=#ffffc0;strokeColor=#ff0000;fontSize=12;" parent="3" vertex="1">
          <mxGeometry x="159" y="262" width="121" height="65" as="geometry" />
        </mxCell>
        <mxCell id="24" value="" style="endArrow=open;strokeColor=#FF0000;endFill=1;rounded=0" parent="3" source="16" target="21" edge="1">
          <mxGeometry relative="1" as="geometry" />
        </mxCell>
        <mxCell id="30" value="dispatch&#xa;command&#xa;worker thread" style="rounded=1;whiteSpace=wrap;html=1;" parent="3" vertex="1">
          <mxGeometry x="164" y="404" width="110" height="50" as="geometry" />
        </mxCell>
        <mxCell id="41" value="" style="edgeStyle=elbowEdgeStyle;elbow=horizontal;strokeColor=#FF0000;endArrow=none;endFill=0;rounded=0;" parent="3" edge="1">
          <mxGeometry width="100" height="100" relative="1" as="geometry">
            <mxPoint x="221.5" y="454" as="sourcePoint" />
            <mxPoint x="275.5" y="492" as="targetPoint" />
            <Array as="points">
              <mxPoint x="221.5" y="513" />
            </Array>
          </mxGeometry>
        </mxCell>
        <mxCell id="33" value="Response" style="rounded=1;whiteSpace=wrap;html=1;" parent="3" vertex="1">
          <mxGeometry x="20" y="538" width="110" height="50" as="geometry" />
        </mxCell>
        <mxCell id="38" value="" style="ellipse;shape=endState;fillColor=#000000;strokeColor=#ff0000" parent="3" vertex="1">
          <mxGeometry x="140.5" y="628" width="30" height="30" as="geometry" />
        </mxCell>
        <mxCell id="39" value="" style="endArrow=open;strokeColor=#FF0000;endFill=1;rounded=0;exitX=0.5;exitY=1;exitDx=0;exitDy=0;" parent="3" source="33" target="38" edge="1">
          <mxGeometry relative="1" as="geometry" />
        </mxCell>
        <mxCell id="SreQ2rXRPatbkiagibJu-47" value="" style="edgeStyle=orthogonalEdgeStyle;curved=1;rounded=0;orthogonalLoop=1;jettySize=auto;html=1;endArrow=open;endFill=0;strokeColor=#FF3333;" parent="3" source="SreQ2rXRPatbkiagibJu-45" target="33" edge="1">
          <mxGeometry relative="1" as="geometry" />
        </mxCell>
        <mxCell id="SreQ2rXRPatbkiagibJu-45" value="Formatting" style="rounded=1;whiteSpace=wrap;html=1;" parent="3" vertex="1">
          <mxGeometry x="177" y="538" width="120" height="48" as="geometry" />
        </mxCell>
        <mxCell id="EUIIUWRr6nZzCH7hx4i6-41" value="Send Error Message" style="rounded=1;whiteSpace=wrap;html=1;" parent="3" vertex="1">
          <mxGeometry x="316.5" y="50" width="96" height="58" as="geometry" />
        </mxCell>
        <mxCell id="EUIIUWRr6nZzCH7hx4i6-47" value="Yes" style="text;html=1;strokeColor=none;fillColor=none;align=center;verticalAlign=middle;whiteSpace=wrap;rounded=0;" parent="3" vertex="1">
          <mxGeometry x="207" y="342" width="60" height="30" as="geometry" />
        </mxCell>
        <mxCell id="EUIIUWRr6nZzCH7hx4i6-50" value="Command Error" style="rhombus;fillColor=#ffffc0;strokeColor=#ff0000;fontSize=10;" parent="3" vertex="1">
          <mxGeometry x="159" y="156" width="121" height="68" as="geometry" />
        </mxCell>
        <mxCell id="EUIIUWRr6nZzCH7hx4i6-63" style="edgeStyle=orthogonalEdgeStyle;rounded=0;orthogonalLoop=1;jettySize=auto;html=1;strokeColor=#FF3333;entryX=0.5;entryY=1;entryDx=0;entryDy=0;exitX=1;exitY=0.5;exitDx=0;exitDy=0;endArrow=open;endFill=0;" parent="3" source="EUIIUWRr6nZzCH7hx4i6-50" target="EUIIUWRr6nZzCH7hx4i6-41" edge="1">
          <mxGeometry relative="1" as="geometry">
            <mxPoint x="365.5" y="182" as="targetPoint" />
          </mxGeometry>
        </mxCell>
        <mxCell id="EUIIUWRr6nZzCH7hx4i6-70" style="edgeStyle=orthogonalEdgeStyle;rounded=0;orthogonalLoop=1;jettySize=auto;html=1;strokeColor=#FF3333;entryX=1;entryY=0.5;entryDx=0;entryDy=0;endArrow=none;endFill=0;" parent="3" source="EUIIUWRr6nZzCH7hx4i6-41" edge="1">
          <mxGeometry relative="1" as="geometry">
            <mxPoint x="130" y="132" as="targetPoint" />
            <Array as="points">
              <mxPoint x="236" y="78" />
              <mxPoint x="236" y="132" />
            </Array>
          </mxGeometry>
        </mxCell>
        <mxCell id="EUIIUWRr6nZzCH7hx4i6-69" style="edgeStyle=orthogonalEdgeStyle;rounded=0;orthogonalLoop=1;jettySize=auto;html=1;strokeColor=#FF3333;entryX=0.5;entryY=0;entryDx=0;entryDy=0;endArrow=open;endFill=0;" parent="3" source="EUIIUWRr6nZzCH7hx4i6-50" target="16" edge="1">
          <mxGeometry relative="1" as="geometry">
            <mxPoint x="130" y="132" as="targetPoint" />
            <Array as="points">
              <mxPoint x="220" y="132" />
              <mxPoint x="75" y="132" />
            </Array>
          </mxGeometry>
        </mxCell>
        <mxCell id="EUIIUWRr6nZzCH7hx4i6-72" value="No" style="text;html=1;strokeColor=none;fillColor=none;align=center;verticalAlign=middle;whiteSpace=wrap;rounded=0;shadow=0;glass=0;sketch=0;" parent="3" vertex="1">
          <mxGeometry x="207" y="232" width="60" height="30" as="geometry" />
        </mxCell>
        <mxCell id="EUIIUWRr6nZzCH7hx4i6-73" value="Yes" style="text;html=1;strokeColor=none;fillColor=none;align=center;verticalAlign=middle;whiteSpace=wrap;rounded=0;" parent="3" vertex="1">
          <mxGeometry x="297" y="162" width="60" height="28" as="geometry" />
        </mxCell>
        <mxCell id="EUIIUWRr6nZzCH7hx4i6-74" value="No" style="text;html=1;strokeColor=none;fillColor=none;align=center;verticalAlign=middle;whiteSpace=wrap;rounded=0;shadow=0;glass=0;sketch=0;" parent="3" vertex="1">
          <mxGeometry x="177" y="126" width="60" height="30" as="geometry" />
        </mxCell>
        <mxCell id="UEADbCwzIwkRxISptcv8-43" value="" style="curved=1;endArrow=open;html=1;rounded=0;exitX=0.005;exitY=0.92;exitDx=0;exitDy=0;exitPerimeter=0;endFill=0;entryX=0.081;entryY=0;entryDx=0;entryDy=0;entryPerimeter=0;strokeColor=#FF3333;" edge="1" parent="3" source="16" target="18">
          <mxGeometry width="50" height="50" relative="1" as="geometry">
            <mxPoint x="20" y="382" as="sourcePoint" />
            <mxPoint x="25.5" y="402" as="targetPoint" />
            <Array as="points">
              <mxPoint x="5.5" y="332" />
              <mxPoint x="5.5" y="382" />
            </Array>
          </mxGeometry>
        </mxCell>
        <mxCell id="4" value="WEBSITE BAAK" style="swimlane;whiteSpace=wrap" parent="1" vertex="1">
          <mxGeometry x="860" y="128" width="290" height="672" as="geometry" />
        </mxCell>
        <mxCell id="SreQ2rXRPatbkiagibJu-44" value="" style="edgeStyle=orthogonalEdgeStyle;rounded=0;orthogonalLoop=1;jettySize=auto;html=1;fillColor=#f8cecc;strokeColor=#FF3333;endArrow=open;endFill=0;" parent="4" source="SreQ2rXRPatbkiagibJu-42" target="SreQ2rXRPatbkiagibJu-43" edge="1">
          <mxGeometry relative="1" as="geometry" />
        </mxCell>
        <mxCell id="SreQ2rXRPatbkiagibJu-42" value="API Request" style="rounded=1;whiteSpace=wrap;html=1;" parent="4" vertex="1">
          <mxGeometry x="20" y="112" width="100" height="48" as="geometry" />
        </mxCell>
        <mxCell id="SreQ2rXRPatbkiagibJu-43" value="Scraping the Information" style="rounded=1;whiteSpace=wrap;html=1;" parent="4" vertex="1">
          <mxGeometry x="160" y="112" width="110" height="48" as="geometry" />
        </mxCell>
        <mxCell id="37" value="" style="edgeStyle=none;strokeColor=#FF0000;endArrow=open;endFill=1;rounded=0;entryX=0.5;entryY=1;entryDx=0;entryDy=0;" parent="1" target="SreQ2rXRPatbkiagibJu-42" edge="1">
          <mxGeometry width="100" height="100" relative="1" as="geometry">
            <mxPoint x="720" y="620" as="sourcePoint" />
            <mxPoint x="840" y="584" as="targetPoint" />
            <Array as="points">
              <mxPoint x="780" y="620" />
              <mxPoint x="840" y="620" />
            </Array>
          </mxGeometry>
        </mxCell>
        <mxCell id="SreQ2rXRPatbkiagibJu-46" style="rounded=0;orthogonalLoop=1;jettySize=auto;html=1;entryX=1;entryY=0.5;entryDx=0;entryDy=0;endArrow=open;endFill=0;strokeColor=#FF3333;exitX=0.5;exitY=1;exitDx=0;exitDy=0;edgeStyle=orthogonalEdgeStyle;curved=1;" parent="1" source="SreQ2rXRPatbkiagibJu-43" target="SreQ2rXRPatbkiagibJu-45" edge="1">
          <mxGeometry relative="1" as="geometry">
            <mxPoint x="990" y="290" as="sourcePoint" />
          </mxGeometry>
        </mxCell>
        <mxCell id="20" value="" style="endArrow=open;strokeColor=#FF0000;endFill=1;rounded=0;exitX=1;exitY=0.5;exitDx=0;exitDy=0;entryX=0;entryY=0.5;entryDx=0;entryDy=0;" parent="1" source="D4_bZYPueLDATteAEwUE-41" target="18" edge="1">
          <mxGeometry relative="1" as="geometry">
            <mxPoint x="300" y="546.79" as="sourcePoint" />
            <mxPoint x="460" y="558" as="targetPoint" />
          </mxGeometry>
        </mxCell>
      </root>
    </mxGraphModel>
  </diagram>
</mxfile>
